<svg width="62" height="15" viewBox="0 0 62 15" fill="none" xmlns="http://www.w3.org/2000/svg">
<path d="M36.0691 15C36.0194 15 35.9697 15 35.9197 14.9998C34.7439 15.0026 33.6575 14.9728 32.6009 14.9084C31.6322 14.8495 30.748 14.5148 30.0437 13.9405C29.3642 13.3864 28.9001 12.6371 28.6645 11.7138C28.4594 10.91 28.4485 10.1209 28.4381 9.3577C28.4305 8.8101 28.4227 8.16122 28.4211 7.50135C28.4227 6.83874 28.4305 6.18986 28.4381 5.64225C28.4485 4.87916 28.4594 4.09009 28.6645 3.28614C28.9001 2.36283 29.3642 1.61358 30.0437 1.05945C30.748 0.485189 31.6322 0.150448 32.601 0.0915109C33.6576 0.0273094 34.7442 -0.00267423 35.9226 0.000186801C37.0987 -0.00233091 38.1848 0.0273094 39.2414 0.0915109C40.21 0.150448 41.0942 0.485189 41.7985 1.05945C42.4782 1.61358 42.9422 2.36283 43.1778 3.28614C43.3829 4.08997 43.3938 4.87916 43.4042 5.64225C43.4118 6.18986 43.4197 6.83874 43.4211 7.49861V7.50135C43.4197 8.16122 43.4118 8.8101 43.4042 9.3577C43.3938 10.1208 43.383 10.9099 43.1778 11.7138C42.9422 12.6371 42.4782 13.3864 41.7985 13.9405C41.0942 14.5148 40.21 14.8495 39.2414 14.9084C38.2296 14.97 37.1902 15 36.0691 15ZM35.9197 13.8279C37.0764 13.8306 38.1385 13.8015 39.1702 13.7387C39.9026 13.6942 40.5377 13.4565 41.058 13.0323C41.5389 12.6401 41.8701 12.099 42.0423 11.4241C42.2131 10.7549 42.2229 10.0365 42.2324 9.34168C42.2398 8.79774 42.2476 8.15344 42.2492 7.49998C42.2476 6.84641 42.2398 6.20222 42.2324 5.65828C42.2229 4.9635 42.2131 4.24504 42.0423 3.57579C41.8701 2.90081 41.5389 2.35974 41.058 1.96755C40.5377 1.54343 39.9026 1.30573 39.1702 1.26121C38.1385 1.19839 37.0764 1.16943 35.9225 1.17195C34.766 1.1692 33.7038 1.19839 32.6721 1.26121C31.9396 1.30573 31.3046 1.54343 30.7843 1.96755C30.3034 2.35974 29.9722 2.90081 29.8 3.57579C29.6292 4.24504 29.6194 4.96339 29.6099 5.65828C29.6024 6.20267 29.5947 6.84732 29.5931 7.50135C29.5947 8.15252 29.6024 8.79729 29.6099 9.34168C29.6194 10.0365 29.6292 10.7549 29.8 11.4241C29.9722 12.099 30.3034 12.6401 30.7843 13.0323C31.3046 13.4564 31.9396 13.6941 32.6721 13.7386C33.7038 13.8015 34.7662 13.8308 35.9197 13.8279ZM35.8918 11.1621C33.8725 11.1621 32.2295 9.51929 32.2295 7.49998C32.2295 5.48066 33.8725 3.83786 35.8918 3.83786C37.9112 3.83786 39.554 5.48066 39.554 7.49998C39.554 9.51929 37.9112 11.1621 35.8918 11.1621ZM35.8918 5.00974C34.5187 5.00974 33.4015 6.12691 33.4015 7.49998C33.4015 8.87304 34.5187 9.99022 35.8918 9.99022C37.265 9.99022 38.3821 8.87304 38.3821 7.49998C38.3821 6.12691 37.265 5.00974 35.8918 5.00974ZM39.9642 2.66598C39.4788 2.66598 39.0853 3.05943 39.0853 3.54489C39.0853 4.03035 39.4788 4.4238 39.9642 4.4238C40.4497 4.4238 40.8431 4.03035 40.8431 3.54489C40.8431 3.05943 40.4497 2.66598 39.9642 2.66598Z" fill="#2E2520"/>
<path d="M60.6992 0.003121L58.754 0C56.5687 0 55.1564 1.44892 55.1564 3.69152V5.39356H53.2006C53.0316 5.39356 52.8948 5.53057 52.8948 5.69957V8.16563C52.8948 8.33463 53.0318 8.47149 53.2006 8.47149H55.1564V14.6941C55.1564 14.8631 55.2933 15 55.4623 15H58.014C58.183 15 58.3199 14.863 58.3199 14.6941V8.47149H60.6066C60.7756 8.47149 60.9125 8.33463 60.9125 8.16563L60.9134 5.69957C60.9134 5.61843 60.8811 5.54071 60.8238 5.48329C60.7666 5.42586 60.6885 5.39356 60.6074 5.39356H58.3199V3.95072C58.3199 3.25723 58.4851 2.90518 59.3885 2.90518L60.6988 2.90472C60.8677 2.90472 61.0045 2.7677 61.0045 2.59886V0.308979C61.0045 0.140289 60.8678 0.0034331 60.6992 0.003121Z" fill="#2E2520"/>
<path d="M18.9474 1.77577C18.2428 2.07692 17.492 2.27654 16.7092 2.37346C17.5145 1.905 18.1291 1.16885 18.418 0.281538C17.6672 0.717692 16.8383 1.02577 15.9549 1.19769C15.242 0.458077 14.2259 0 13.1175 0C10.967 0 9.23566 1.70077 9.23566 3.78577C9.23566 4.08577 9.26171 4.37423 9.32566 4.64885C6.09632 4.49538 3.23882 2.98731 1.31921 0.69C0.984079 1.25654 0.7875 1.905 0.7875 2.60308C0.7875 3.91385 1.48026 5.07577 2.51289 5.74846C1.88882 5.73692 1.27658 5.56038 0.757895 5.28231C0.757895 5.29385 0.757895 5.30885 0.757895 5.32385C0.757895 7.16308 2.10434 8.69077 3.87 9.04269C3.55382 9.12692 3.20921 9.16731 2.85158 9.16731C2.60289 9.16731 2.35184 9.15346 2.11618 9.10269C2.61947 10.6015 4.04763 11.7035 5.74579 11.7392C4.42421 12.7465 2.74618 13.3535 0.929605 13.3535C0.611053 13.3535 0.305526 13.3396 0 13.3015C1.72066 14.3827 3.75987 15 5.95895 15C13.1068 15 17.0147 9.23077 17.0147 4.23C17.0147 4.06269 17.0088 3.90115 17.0005 3.74077C17.7714 3.20769 18.4192 2.54192 18.9474 1.77577Z" fill="#2E2520"/>
</svg>
