<svg width="0" height="0" class="hidden">
  <symbol aria-hidden="true" xmlns="http://www.w3.org/2000/svg" overflow="hidden" viewBox="0 0 undefined undefined" id="symbol-defs">
    <defs>
      <symbol id="icon-chat" viewBox="0 0 47 32">
        <path d="M35.987 13.842C35.987 5.481 27.173 0 18.373 0 9.538 0 .76 5.506.76 13.842c0 3.154 1.381 6.237 3.889 8.684a.378.378 0 01.096.371c-.788 2.886-2.654 5.493-3.419 6.48a.989.989 0 00-.102 1.06c.171.339.51.547.888.547h.026c3.746-.093 8.089-1.151 10.773-3.79a.382.382 0 01.36-.097c1.649.391 3.366.589 5.103.589 8.832 0 17.614-5.504 17.614-13.842zM13.58 25.79a1.718 1.718 0 00-1.61.446c-2.684 2.639-7.067 3.239-9.142 3.372.948-1.308 2.489-3.711 3.211-6.359a1.721 1.721 0 00-.453-1.684c-2.279-2.223-3.484-4.894-3.484-7.723 0-6.893 7.3-12.501 16.272-12.501s16.272 5.608 16.272 12.501-7.3 12.501-16.272 12.501c-1.633 0-3.245-.186-4.793-.553z"></path>
        <path d="M40.3 24.986c3.91-1.976 6.245-5.344 6.245-9.01 0-5.18-4.683-9.607-11.135-10.525a.67.67 0 10-.19 1.327c5.784.823 9.983 4.692 9.983 9.198 0 3.149-2.059 6.07-5.509 7.813a1.658 1.658 0 00-.874 1.823c.327 1.537 1.023 2.96 1.58 3.924-3.961-.659-5.462-2.56-5.937-3.382a1.654 1.654 0 00-1.432-.823h-.054c-.744 0-1.488-.052-2.213-.153a.672.672 0 00-.187 1.329c.786.11 1.594.166 2.4.166h.056c.112 0 .215.058.269.152 1.816 3.148 5.992 3.952 7.703 4.151.378.044.738-.129.94-.452s.199-.721-.007-1.041c-.515-.803-1.435-2.409-1.806-4.15a.314.314 0 01.167-.346zM7.937 11.443c-1.282 0-2.324 1.043-2.324 2.324s1.043 2.324 2.324 2.324 2.324-1.043 2.324-2.324a2.327 2.327 0 00-2.324-2.324zm0 3.308a.984.984 0 010-1.966.984.984 0 010 1.966zm6.631-3.308c-1.282 0-2.324 1.043-2.324 2.324s1.043 2.324 2.324 2.324 2.325-1.043 2.325-2.324a2.327 2.327 0 00-2.325-2.324zm0 3.308a.984.984 0 010-1.966.984.984 0 010 1.966zm6.631-3.308c-1.282 0-2.324 1.043-2.324 2.324s1.043 2.324 2.324 2.324 2.325-1.043 2.325-2.324a2.327 2.327 0 00-2.325-2.324zm0 3.308a.984.984 0 010-1.966.984.984 0 010 1.966zm6.631-3.308c-1.282 0-2.325 1.043-2.325 2.324s1.043 2.324 2.325 2.324 2.324-1.043 2.324-2.324a2.327 2.327 0 00-2.324-2.324zm0 3.308a.984.984 0 010-1.966.984.984 0 010 1.966z"></path>
      </symbol>
      <symbol id="icon-chef-hat" viewBox="0 0 35 32">
        <path d="M25.046 8.507a.492.492 0 01-.489-.489 7.164 7.164 0 00-14.328 0 .492.492 0 01-.489.489.492.492 0 01-.489-.489 8.145 8.145 0 0116.286 0 .488.488 0 01-.489.489z"></path>
        <path d="M26.474 19.581a.488.488 0 11-.006-.978 7.114 7.114 0 007.072-7.023 7.11 7.11 0 00-7.16-7.037 7.262 7.262 0 00-2.132.316.489.489 0 01-.286-.935 8.26 8.26 0 012.419-.359 8.09 8.09 0 018.139 8.016 8.097 8.097 0 01-8.04 8.002h-.006zm-18.166 0h-.006a8.1 8.1 0 01-8.04-8.002 8.089 8.089 0 018.139-8.016 8.26 8.26 0 012.419.359.49.49 0 01.331.613.485.485 0 01-.242.291.5.5 0 01-.376.032 7.267 7.267 0 00-2.132-.316 7.108 7.108 0 00-7.16 7.037 7.118 7.118 0 007.072 7.023.48.48 0 01.345.145.495.495 0 01.103.534.486.486 0 01-.454.299z"></path>
        <path d="M26.474 31.756H8.308a.492.492 0 01-.489-.489V19.093a.492.492 0 01.489-.489.492.492 0 01.489.489v11.684h17.187V19.093a.492.492 0 01.489-.489.492.492 0 01.489.489v12.174a.488.488 0 01-.489.489z"></path>
        <path d="M29.88 27.014H11.714a.488.488 0 110-.978H29.88a.492.492 0 01.489.489.488.488 0 01-.489.489z"></path>
      </symbol>
      <symbol id="icon-clock" viewBox="0 0 32 32">
        <path d="M16 0C7.178 0 0 7.178 0 16s7.178 16 16 16 16-7.178 16-16S24.822 0 16 0zm0 30.933C7.766 30.933 1.067 24.234 1.067 16S7.766 1.067 16 1.067 30.933 7.766 30.933 16 24.234 30.933 16 30.933z"></path>
        <path d="M16.533 13.878V8.469a.533.533 0 10-1.066 0v5.409a2.13 2.13 0 00-1.524 1.524h-3.809a.533.533 0 100 1.066h3.809a2.132 2.132 0 002.058 1.6 2.135 2.135 0 002.133-2.133c0-.992-.683-1.819-1.6-2.058zM16 17.002a1.068 1.068 0 010-2.134 1.068 1.068 0 010 2.134zm0-11.733a.533.533 0 00.533-.533v-.533a.533.533 0 10-1.066 0v.533c0 .295.239.533.533.533zm0 21.333a.533.533 0 00-.533.533v.533a.533.533 0 101.066 0v-.533a.533.533 0 00-.533-.533zm11.733-11.2H27.2a.533.533 0 100 1.066h.533a.533.533 0 100-1.066zm-22.933 0h-.533a.533.533 0 100 1.066H4.8a.533.533 0 100-1.066zm19.119-8.14l-.377.377a.532.532 0 00.377.91.532.532 0 00.377-.156l.377-.377a.534.534 0 00-.754-.754zM7.703 23.478l-.377.377a.532.532 0 00.377.91.532.532 0 00.377-.156l.377-.377a.534.534 0 00-.754-.754zm16.594 0a.533.533 0 10-.754.754l.377.377a.532.532 0 10.754-.754l-.377-.377zM8.081 7.261a.533.533 0 10-.754.754l.377.377a.532.532 0 10.754-.754l-.377-.377z"></path>
      </symbol>
      <symbol id="icon-people" viewBox="0 0 35 32">
        <path d="M11.847 0C8.169 0 5.173 2.996 5.173 6.674s2.996 6.674 6.674 6.674c3.678 0 6.674-2.996 6.674-6.674S15.525 0 11.847 0zm0 12.229c-3.071 0-5.562-2.498-5.562-5.562s2.498-5.562 5.562-5.562c3.071 0 5.562 2.498 5.562 5.562s-2.498 5.562-5.562 5.562zm13.669-9.458c-2.764 0-5.009 2.245-5.009 5.009s2.245 5.009 5.009 5.009c2.764 0 5.009-2.245 5.009-5.009s-2.245-5.009-5.009-5.009zm0 8.912c-2.15 0-3.897-1.747-3.897-3.897s1.747-3.897 3.897-3.897c2.15 0 3.897 1.747 3.897 3.897s-1.747 3.897-3.897 3.897z"></path>
        <path d="M34.476 20.131c-.505-3.044-2.395-5.609-5.616-6.954 0 0-1.426 1.078-3.344 1.044-2.095-.041-3.344-1.044-3.344-1.044s-1.556.58-2.811 1.788c-1.16-1.03-3.119-1.87-3.119-1.87s-1.795 1.365-4.402 1.344c-2.736-.02-4.388-1.344-4.388-1.344S1.536 15.129.287 22.028c0 0-1.338 3.658 1.761 9.124h19.606s1.392-2.423 1.638-3.897h9.752c2.395-3.63 1.433-7.124 1.433-7.124zM20.964 30.04H2.737c-2.382-4.524-1.351-7.827-1.351-7.827a10.57 10.57 0 015.985-7.861c2.73 1.604 6.23 1.604 8.96 0a10.57 10.57 0 015.985 7.861c-.007 0 .983 4.067-1.351 7.827zm11.43-3.897h-8.878c.341-1.965-.109-4.115-.109-4.115a11.66 11.66 0 00-3.228-6.312 7.951 7.951 0 011.904-1.283c2.095 1.201 4.763 1.201 6.858 0a7.956 7.956 0 014.436 5.882s.812 2.757-.983 5.828z"></path>
      </symbol>
    </defs>
  </symbol>
</svg>